<?xml version="1.0" encoding="UTF-8"?>
<svg xmlns="http://www.w3.org/2000/svg" xmlns:xlink="http://www.w3.org/1999/xlink" width="154px" height="34px" viewBox="0 0 154 34" version="1.1">
<g id="surface1">
<path style=" stroke:none;fill-rule:nonzero;fill:rgb(90.980392%,14.117647%,16.078431%);fill-opacity:1;" d="M 153.671875 17.527344 C 153.683594 13.40625 149.445312 9.949219 143.875 9.535156 C 138.304688 9.125 133.214844 11.886719 132.109375 15.925781 L 132.242188 15.925781 C 133.191406 13.140625 136.820312 11.316406 140.691406 11.683594 C 144.5625 12.046875 147.449219 14.484375 147.410156 17.359375 C 147.4375 18.457031 147.097656 19.546875 146.421875 20.527344 C 146.382812 20.585938 146.351562 20.648438 146.332031 20.714844 C 143.84375 24.410156 138.234375 26.359375 132.777344 25.433594 C 127.320312 24.507812 123.4375 20.945312 123.398438 16.824219 L 123.308594 16.824219 C 123.078125 22.515625 128.667969 27.4375 136.320312 28.28125 C 143.972656 29.125 151.277344 25.625 153.324219 20.132812 C 153.679688 19.296875 153.820312 18.417969 153.746094 17.546875 "/>
<path style=" stroke:none;fill-rule:nonzero;fill:rgb(94.509804%,44.313725%,14.509804%);fill-opacity:1;" d="M 140.996094 5.75 C 133.890625 4.964844 126.996094 7.921875 124.425781 12.859375 C 124.425781 12.859375 124.371094 13 124.285156 13.230469 C 124.222656 13.363281 124.15625 13.496094 124.097656 13.640625 C 123.703125 14.691406 123.519531 15.777344 123.554688 16.867188 L 123.605469 16.867188 C 123.929688 20.847656 128.175781 24.046875 133.578125 24.375 C 138.976562 24.707031 143.882812 22.066406 145.097656 18.183594 L 144.964844 18.183594 C 143.871094 20.890625 140.230469 22.589844 136.433594 22.167969 C 132.640625 21.742188 129.847656 19.328125 129.886719 16.503906 L 129.828125 16.503906 C 129.839844 15.769531 130.015625 15.042969 130.347656 14.351562 C 132.320312 10.238281 138.054688 7.785156 143.886719 8.550781 C 149.722656 9.320312 153.941406 13.085938 153.851562 17.449219 L 153.949219 17.449219 C 154.351562 11.679688 148.753906 6.628906 140.996094 5.75 "/>
<path style=" stroke:none;fill-rule:nonzero;fill:rgb(90.980392%,14.117647%,16.078431%);fill-opacity:1;" d="M 26.921875 28.03125 L 26.789062 6.800781 L 14.171875 14.980469 L 0 6.703125 L 0 28.167969 L 6.472656 28.167969 L 6.472656 16.15625 L 14.125 20.683594 L 20.835938 16.40625 L 20.835938 28.03125 Z M 26.921875 28.03125 "/>
<path style=" stroke:none;fill-rule:nonzero;fill:rgb(90.980392%,14.117647%,16.078431%);fill-opacity:1;" d="M 73.394531 7.121094 L 53.464844 7.121094 L 53.464844 11.847656 L 60.445312 11.847656 L 60.445312 28.078125 L 66.402344 28.078125 L 66.402344 11.847656 L 73.394531 11.847656 Z M 73.394531 7.121094 "/>
<path style=" stroke:none;fill-rule:nonzero;fill:rgb(90.980392%,14.117647%,16.078431%);fill-opacity:1;" d="M 112.980469 16.527344 L 121.414062 28.078125 L 127.753906 28.078125 L 112.964844 6.667969 L 98.023438 28.078125 L 104.820312 28.078125 L 112.957031 16.585938 Z M 112.980469 16.527344 "/>
<path style=" stroke:none;fill-rule:nonzero;fill:rgb(94.509804%,44.313725%,14.509804%);fill-opacity:1;" d="M 109.578125 28.078125 L 112.988281 23.074219 L 116.398438 28.078125 Z M 109.578125 28.078125 "/>
<path style=" stroke:none;fill-rule:nonzero;fill:rgb(90.980392%,14.117647%,16.078431%);fill-opacity:1;" d="M 51.90625 28.078125 L 58.238281 28.078125 L 43.457031 6.667969 L 28.519531 28.078125 L 35.3125 28.078125 L 43.441406 15.855469 Z M 51.90625 28.078125 "/>
<path style=" stroke:none;fill-rule:nonzero;fill:rgb(94.509804%,44.313725%,14.509804%);fill-opacity:1;" d="M 40.066406 28.078125 L 43.480469 22.460938 L 46.890625 28.078125 Z M 40.066406 28.078125 "/>
<path style=" stroke:none;fill-rule:nonzero;fill:rgb(90.980392%,14.117647%,16.078431%);fill-opacity:1;" d="M 96.296875 16.902344 C 98.078125 15.097656 98.402344 12.726562 97.144531 10.691406 C 95.890625 8.660156 93.246094 7.28125 90.226562 7.085938 C 89.828125 7.050781 89.429688 7.035156 89.03125 7.035156 L 75.285156 7.035156 L 75.285156 28 L 91.097656 28 C 94.699219 28 97.902344 26.320312 99.078125 23.816406 C 100.25 21.3125 99.132812 18.535156 96.296875 16.902344 M 90.53125 23.570312 L 81.207031 23.570312 L 81.207031 10.78125 L 88.851562 10.78125 C 89.964844 10.738281 91.023438 11.152344 91.597656 11.859375 C 92.175781 12.5625 92.175781 13.445312 91.597656 14.148438 C 91.023438 14.851562 89.964844 15.265625 88.851562 15.222656 L 84.824219 15.222656 L 84.824219 19.140625 L 90.488281 19.140625 C 92.097656 19.203125 93.363281 20.179688 93.363281 21.367188 C 93.363281 22.554688 92.097656 23.53125 90.488281 23.59375 "/>
</g>
</svg>
