<?xml version="1.0" encoding="UTF-8"?>
<svg xmlns="http://www.w3.org/2000/svg" xmlns:xlink="http://www.w3.org/1999/xlink" width="233px" height="20px" viewBox="0 0 233 20" version="1.1">
<g id="surface1">
<path style=" stroke:none;fill-rule:nonzero;fill:rgb(90.980392%,14.117647%,16.078431%);fill-opacity:1;" d="M 232.503906 10.308594 C 232.519531 7.886719 226.109375 5.851562 217.679688 5.609375 C 209.253906 5.367188 201.550781 6.992188 199.878906 9.367188 L 200.082031 9.367188 C 201.515625 7.730469 207.007812 6.65625 212.863281 6.871094 C 218.722656 7.085938 223.089844 8.519531 223.03125 10.210938 C 223.070312 10.855469 222.558594 11.5 221.535156 12.074219 C 221.476562 12.109375 221.429688 12.144531 221.398438 12.183594 C 217.632812 14.359375 209.148438 15.503906 200.890625 14.960938 C 192.632812 14.417969 186.757812 12.320312 186.699219 9.898438 L 186.5625 9.898438 C 186.214844 13.246094 194.671875 16.140625 206.25 16.636719 C 217.828125 17.132812 228.878906 15.074219 231.976562 11.84375 C 232.515625 11.351562 232.726562 10.835938 232.617188 10.320312 "/>
<path style=" stroke:none;fill-rule:nonzero;fill:rgb(94.509804%,44.313725%,14.509804%);fill-opacity:1;" d="M 213.324219 3.382812 C 202.574219 2.921875 192.144531 4.660156 188.253906 7.5625 C 188.253906 7.5625 188.171875 7.648438 188.042969 7.78125 C 187.945312 7.859375 187.847656 7.9375 187.757812 8.023438 C 187.160156 8.640625 186.882812 9.28125 186.9375 9.921875 L 187.011719 9.921875 C 187.503906 12.261719 193.929688 14.144531 202.101562 14.339844 C 210.269531 14.535156 217.691406 12.980469 219.53125 10.695312 L 219.328125 10.695312 C 217.675781 12.289062 212.167969 13.289062 206.421875 13.039062 C 200.683594 12.789062 196.457031 11.371094 196.515625 9.707031 L 196.429688 9.707031 C 196.445312 9.277344 196.710938 8.847656 197.214844 8.441406 C 200.199219 6.023438 208.875 4.578125 217.699219 5.03125 C 226.527344 5.484375 232.910156 7.699219 232.777344 10.265625 L 232.921875 10.265625 C 233.53125 6.871094 225.0625 3.898438 213.324219 3.382812 "/>
<path style=" stroke:none;fill-rule:nonzero;fill:rgb(90.980392%,14.117647%,16.078431%);fill-opacity:1;" d="M 40.734375 16.488281 L 40.53125 4 L 21.441406 8.8125 L 0 3.941406 L 0 16.570312 L 9.792969 16.570312 L 9.792969 9.503906 L 21.371094 12.167969 L 31.523438 9.652344 L 31.523438 16.488281 Z M 40.734375 16.488281 "/>
<path style=" stroke:none;fill-rule:nonzero;fill:rgb(90.980392%,14.117647%,16.078431%);fill-opacity:1;" d="M 111.046875 4.1875 L 80.890625 4.1875 L 80.890625 6.96875 L 91.453125 6.96875 L 91.453125 16.515625 L 100.464844 16.515625 L 100.464844 6.96875 L 111.046875 6.96875 Z M 111.046875 4.1875 "/>
<path style=" stroke:none;fill-rule:nonzero;fill:rgb(90.980392%,14.117647%,16.078431%);fill-opacity:1;" d="M 170.9375 9.722656 L 183.699219 16.515625 L 193.289062 16.515625 L 170.914062 3.921875 L 148.308594 16.515625 L 158.589844 16.515625 L 170.902344 9.757812 Z M 170.9375 9.722656 "/>
<path style=" stroke:none;fill-rule:nonzero;fill:rgb(94.509804%,44.313725%,14.509804%);fill-opacity:1;" d="M 165.789062 16.515625 L 170.949219 13.574219 L 176.109375 16.515625 Z M 165.789062 16.515625 "/>
<path style=" stroke:none;fill-rule:nonzero;fill:rgb(90.980392%,14.117647%,16.078431%);fill-opacity:1;" d="M 78.535156 16.515625 L 88.113281 16.515625 L 65.75 3.921875 L 43.148438 16.515625 L 53.425781 16.515625 L 65.726562 9.328125 Z M 78.535156 16.515625 "/>
<path style=" stroke:none;fill-rule:nonzero;fill:rgb(94.509804%,44.313725%,14.509804%);fill-opacity:1;" d="M 60.621094 16.515625 L 65.785156 13.210938 L 70.945312 16.515625 Z M 60.621094 16.515625 "/>
<path style=" stroke:none;fill-rule:nonzero;fill:rgb(90.980392%,14.117647%,16.078431%);fill-opacity:1;" d="M 145.695312 9.941406 C 148.390625 8.882812 148.882812 7.484375 146.976562 6.289062 C 145.082031 5.09375 141.082031 4.28125 136.511719 4.167969 C 135.910156 4.148438 135.304688 4.136719 134.703125 4.136719 L 113.90625 4.136719 L 113.90625 16.46875 L 137.828125 16.46875 C 143.277344 16.46875 148.125 15.484375 149.902344 14.007812 C 151.675781 12.535156 149.988281 10.902344 145.695312 9.941406 M 136.972656 13.863281 L 122.863281 13.863281 L 122.863281 6.34375 L 134.429688 6.34375 C 136.117188 6.316406 137.71875 6.558594 138.585938 6.976562 C 139.460938 7.390625 139.460938 7.910156 138.585938 8.324219 C 137.71875 8.734375 136.117188 8.980469 134.429688 8.953125 L 128.339844 8.953125 L 128.339844 11.257812 L 136.90625 11.257812 C 139.34375 11.296875 141.257812 11.871094 141.257812 12.570312 C 141.257812 13.265625 139.34375 13.84375 136.90625 13.878906 "/>
</g>
</svg>
