<?xml version="1.0" encoding="UTF-8"?>
<svg xmlns="http://www.w3.org/2000/svg" xmlns:xlink="http://www.w3.org/1999/xlink" width="306px" height="50px" viewBox="0 0 306 50" version="1.1">
<g id="surface1">
<path style=" stroke:none;fill-rule:nonzero;fill:rgb(90.980392%,14.117647%,16.078431%);fill-opacity:1;" d="M 305.34375 25.777344 C 305.371094 19.714844 296.953125 14.632812 285.882812 14.023438 C 274.8125 13.417969 264.699219 17.480469 262.503906 23.421875 L 262.765625 23.421875 C 264.648438 19.324219 271.863281 16.640625 279.554688 17.179688 C 287.246094 17.714844 292.984375 21.300781 292.910156 25.527344 C 292.960938 27.144531 292.285156 28.742188 290.945312 30.1875 C 290.863281 30.273438 290.800781 30.367188 290.765625 30.464844 C 285.820312 35.894531 274.675781 38.765625 263.832031 37.40625 C 252.984375 36.042969 245.273438 30.804688 245.191406 24.742188 L 245.011719 24.742188 C 244.558594 33.113281 255.664062 40.347656 270.871094 41.589844 C 286.078125 42.828125 300.589844 37.683594 304.65625 29.609375 C 305.363281 28.378906 305.644531 27.085938 305.492188 25.800781 "/>
<path style=" stroke:none;fill-rule:nonzero;fill:rgb(94.509804%,44.313725%,14.509804%);fill-opacity:1;" d="M 280.160156 8.457031 C 266.042969 7.300781 252.34375 11.648438 247.238281 18.914062 C 247.238281 18.914062 247.125 19.117188 246.960938 19.457031 C 246.828125 19.652344 246.699219 19.847656 246.582031 20.0625 C 245.800781 21.605469 245.433594 23.203125 245.503906 24.804688 L 245.601562 24.804688 C 246.246094 30.65625 254.691406 35.363281 265.417969 35.847656 C 276.144531 36.332031 285.898438 32.453125 288.3125 26.738281 L 288.050781 26.738281 C 285.871094 30.71875 278.640625 33.21875 271.097656 32.597656 C 263.554688 31.976562 258.007812 28.421875 258.085938 24.269531 L 257.972656 24.269531 C 257.996094 23.191406 258.34375 22.121094 259.003906 21.105469 C 262.925781 15.058594 274.3125 11.445312 285.90625 12.578125 C 297.5 13.707031 305.878906 19.246094 305.707031 25.660156 L 305.902344 25.660156 C 306.695312 17.179688 295.574219 9.746094 280.160156 8.457031 "/>
<path style=" stroke:none;fill-rule:nonzero;fill:rgb(90.980392%,14.117647%,16.078431%);fill-opacity:1;" d="M 53.492188 41.222656 L 53.230469 10 L 28.160156 22.03125 L 0 9.855469 L 0 41.425781 L 12.863281 41.425781 L 12.863281 23.761719 L 28.0625 30.417969 L 41.398438 24.125 L 41.398438 41.222656 Z M 53.492188 41.222656 "/>
<path style=" stroke:none;fill-rule:nonzero;fill:rgb(90.980392%,14.117647%,16.078431%);fill-opacity:1;" d="M 145.832031 10.472656 L 106.234375 10.472656 L 106.234375 17.425781 L 120.109375 17.425781 L 120.109375 41.292969 L 131.941406 41.292969 L 131.941406 17.425781 L 145.832031 17.425781 Z M 145.832031 10.472656 "/>
<path style=" stroke:none;fill-rule:nonzero;fill:rgb(90.980392%,14.117647%,16.078431%);fill-opacity:1;" d="M 224.492188 24.304688 L 241.25 41.292969 L 253.847656 41.292969 L 224.460938 9.804688 L 194.777344 41.292969 L 208.277344 41.292969 L 224.445312 24.394531 Z M 224.492188 24.304688 "/>
<path style=" stroke:none;fill-rule:nonzero;fill:rgb(94.509804%,44.313725%,14.509804%);fill-opacity:1;" d="M 217.734375 41.292969 L 224.507812 33.929688 L 231.285156 41.292969 Z M 217.734375 41.292969 "/>
<path style=" stroke:none;fill-rule:nonzero;fill:rgb(90.980392%,14.117647%,16.078431%);fill-opacity:1;" d="M 103.140625 41.292969 L 115.722656 41.292969 L 86.351562 9.804688 L 56.667969 41.292969 L 70.167969 41.292969 L 86.316406 23.316406 Z M 103.140625 41.292969 "/>
<path style=" stroke:none;fill-rule:nonzero;fill:rgb(94.509804%,44.313725%,14.509804%);fill-opacity:1;" d="M 79.609375 41.292969 L 86.398438 33.03125 L 93.175781 41.292969 Z M 79.609375 41.292969 "/>
<path style=" stroke:none;fill-rule:nonzero;fill:rgb(90.980392%,14.117647%,16.078431%);fill-opacity:1;" d="M 191.339844 24.855469 C 194.882812 22.199219 195.527344 18.714844 193.03125 15.726562 C 190.535156 12.738281 185.285156 10.710938 179.28125 10.417969 C 178.492188 10.367188 177.699219 10.34375 176.90625 10.347656 L 149.597656 10.347656 L 149.597656 41.175781 L 181.015625 41.175781 C 188.167969 41.179688 194.535156 38.707031 196.867188 35.023438 C 199.199219 31.339844 196.976562 27.257812 191.339844 24.855469 M 179.886719 34.660156 L 161.363281 34.660156 L 161.363281 15.855469 L 176.546875 15.855469 C 178.765625 15.792969 180.863281 16.402344 182.007812 17.4375 C 183.152344 18.472656 183.152344 19.769531 182.007812 20.804688 C 180.863281 21.84375 178.765625 22.453125 176.546875 22.386719 L 168.546875 22.386719 L 168.546875 28.144531 L 179.804688 28.144531 C 183.003906 28.238281 185.511719 29.675781 185.511719 31.421875 C 185.511719 33.167969 183.003906 34.605469 179.804688 34.695312 "/>
</g>
</svg>
