<?xml version="1.0" encoding="UTF-8"?>
<svg xmlns="http://www.w3.org/2000/svg" xmlns:xlink="http://www.w3.org/1999/xlink" width="208px" height="55px" viewBox="0 0 208 55" version="1.1">
<g id="surface1">
<path style=" stroke:none;fill-rule:nonzero;fill:rgb(100%,100%,100%);fill-opacity:1;" d="M 102.476562 22.90625 L 121.164062 22.90625 L 122.28125 22.933594 L 123.449219 22.988281 L 124.515625 23.070312 L 125.835938 23.214844 L 126.648438 23.335938 L 127.257812 23.445312 L 127.96875 23.59375 L 128.476562 23.714844 L 128.78125 23.78125 L 128.78125 23.808594 L 128.882812 23.808594 L 129.238281 23.914062 L 129.847656 24.117188 L 130.40625 24.34375 L 131.015625 24.652344 L 131.371094 24.894531 L 131.675781 25.203125 L 131.828125 25.40625 L 131.878906 25.539062 L 131.878906 26.117188 L 131.726562 26.386719 L 131.523438 26.613281 L 131.21875 26.855469 L 130.761719 27.136719 L 130.203125 27.390625 L 129.898438 27.5 L 129.949219 27.539062 L 130.507812 27.660156 L 131.269531 27.863281 L 131.828125 28.050781 L 132.335938 28.238281 L 132.84375 28.480469 L 133.300781 28.734375 L 133.65625 29.015625 L 133.910156 29.328125 L 134.011719 29.566406 L 134.011719 30.039062 L 133.859375 30.359375 L 133.605469 30.628906 L 133.25 30.898438 L 132.640625 31.234375 L 132.183594 31.421875 L 131.777344 31.570312 L 131.371094 31.703125 L 130.914062 31.835938 L 130.609375 31.917969 L 130.507812 31.917969 L 130.507812 31.945312 L 129.949219 32.066406 L 129.289062 32.199219 L 128.375 32.347656 L 127.5625 32.453125 L 126.851562 32.535156 L 125.683594 32.628906 L 124.667969 32.683594 L 124.210938 32.695312 L 102.425781 32.695312 L 102.425781 22.921875 Z M 110.246094 24.695312 L 110.246094 30.628906 L 122.738281 30.628906 L 123.449219 30.589844 L 124.261719 30.496094 L 124.921875 30.359375 L 125.378906 30.226562 L 125.785156 30.050781 L 126.039062 29.875 L 126.140625 29.714844 L 126.140625 29.488281 L 125.988281 29.285156 L 125.734375 29.125 L 125.277344 28.949219 L 125.023438 28.871094 L 124.464844 28.75 L 123.957031 28.667969 L 123.246094 28.601562 L 122.585938 28.574219 L 114.867188 28.574219 L 114.867188 26.75 L 120.503906 26.75 L 121.214844 26.722656 L 121.976562 26.640625 L 122.535156 26.546875 L 123.144531 26.398438 L 123.5 26.265625 L 123.855469 26.078125 L 124.007812 25.941406 L 124.058594 25.820312 L 124.058594 25.621094 L 123.957031 25.445312 L 123.652344 25.242188 L 123.296875 25.097656 L 122.890625 24.976562 L 122.230469 24.839844 L 121.46875 24.746094 L 120.859375 24.707031 L 120.148438 24.695312 Z M 110.246094 24.695312 "/>
<path style=" stroke:none;fill-rule:nonzero;fill:rgb(100%,100%,100%);fill-opacity:1;" d="M 4.671875 22.761719 L 4.925781 22.785156 L 5.484375 22.90625 L 6.195312 23.054688 L 7.007812 23.230469 L 7.667969 23.363281 L 8.429688 23.523438 L 9.140625 23.671875 L 10.664062 23.996094 L 11.375 24.144531 L 11.882812 24.25 L 14.015625 24.695312 L 14.828125 24.867188 L 15.691406 25.042969 L 16.554688 25.230469 L 17.214844 25.363281 L 17.976562 25.527344 L 18.6875 25.671875 L 19.5 25.847656 L 20.160156 25.984375 L 20.921875 26.144531 L 21.632812 26.292969 L 22.648438 26.507812 L 23.054688 26.585938 L 23.257812 26.574219 L 23.917969 26.414062 L 24.476562 26.292969 L 24.679688 26.238281 L 24.78125 26.238281 L 24.78125 26.210938 L 25.339844 26.089844 L 26.101562 25.902344 L 26.660156 25.78125 L 27.320312 25.621094 L 27.878906 25.5 L 28.589844 25.324219 L 29.148438 25.203125 L 29.808594 25.042969 L 30.367188 24.921875 L 30.722656 24.828125 L 31.28125 24.707031 L 31.484375 24.652344 L 31.585938 24.652344 L 31.585938 24.625 L 32.144531 24.503906 L 32.855469 24.332031 L 33.414062 24.210938 L 33.566406 24.171875 L 33.667969 24.171875 L 33.71875 24.128906 L 34.277344 24.007812 L 34.9375 23.847656 L 35.496094 23.726562 L 36.207031 23.550781 L 36.765625 23.429688 L 37.476562 23.257812 L 38.035156 23.136719 L 38.695312 22.976562 L 39.457031 22.800781 L 39.558594 22.800781 L 39.609375 24.425781 L 39.660156 26.894531 L 39.710938 30.589844 L 39.710938 32.722656 L 31.738281 32.722656 L 31.738281 27.324219 L 31.179688 27.445312 L 30.621094 27.582031 L 30.214844 27.675781 L 29.554688 27.820312 L 28.386719 28.089844 L 28.285156 28.089844 L 28.285156 28.117188 L 27.726562 28.238281 L 27.167969 28.371094 L 26.609375 28.492188 L 26.050781 28.628906 L 25.492188 28.75 L 24.933594 28.882812 L 24.375 29.003906 L 23.816406 29.136719 L 23.511719 29.207031 L 23.410156 29.207031 L 23.410156 29.230469 L 23.054688 29.300781 L 22.648438 29.21875 L 21.835938 29.042969 L 21.125 28.898438 L 20.261719 28.707031 L 19.550781 28.5625 L 18.738281 28.386719 L 18.636719 28.371094 L 18.636719 28.347656 L 18.433594 28.320312 L 17.976562 28.226562 L 17.417969 28.105469 L 16.707031 27.957031 L 16.046875 27.820312 L 16.046875 27.796875 L 15.84375 27.769531 L 15.386719 27.675781 L 14.828125 27.554688 L 14.117188 27.40625 L 13.558594 27.285156 L 13.152344 27.203125 L 13.152344 32.789062 L 4.671875 32.789062 Z M 4.671875 22.761719 "/>
<path style=" stroke:none;fill-rule:nonzero;fill:rgb(100%,100%,100%);fill-opacity:1;" d="M 151.429688 22.734375 L 151.582031 22.785156 L 152.496094 23.269531 L 153.207031 23.632812 L 153.613281 23.847656 L 154.222656 24.15625 L 155.238281 24.695312 L 155.746094 24.949219 L 156.507812 25.351562 L 157.015625 25.605469 L 158.386719 26.332031 L 158.996094 26.640625 L 160.164062 27.257812 L 160.773438 27.566406 L 161.179688 27.78125 L 161.636719 28.011719 L 162.449219 28.441406 L 162.90625 28.667969 L 164.226562 29.367188 L 164.734375 29.621094 L 165.546875 30.050781 L 166.003906 30.28125 L 166.410156 30.496094 L 166.96875 30.777344 L 167.375 31.003906 L 167.882812 31.257812 L 168.847656 31.769531 L 169.304688 32 L 169.710938 32.214844 L 170.320312 32.523438 L 170.675781 32.710938 L 170.675781 32.75 L 162.398438 32.75 L 161.992188 32.5625 L 161.230469 32.1875 L 160.570312 31.863281 L 159.808594 31.488281 L 159.402344 31.300781 L 159.046875 31.113281 L 158.640625 30.925781 L 158.285156 30.734375 L 157.878906 30.546875 L 157.523438 30.359375 L 156.863281 30.050781 L 156.457031 29.835938 L 156.101562 29.675781 L 155.746094 29.488281 L 155.136719 29.191406 L 154.273438 28.761719 L 153.613281 28.441406 L 153.003906 28.144531 L 152.140625 27.714844 L 151.53125 27.417969 L 151.480469 27.390625 L 151.226562 27.5 L 150.820312 27.714844 L 150.3125 27.96875 L 149.90625 28.183594 L 149.296875 28.492188 L 148.789062 28.75 L 148.078125 29.109375 L 147.570312 29.367188 L 146.960938 29.660156 L 146.554688 29.875 L 146.148438 30.078125 L 145.742188 30.292969 L 145.03125 30.65625 L 144.523438 30.910156 L 143.914062 31.21875 L 143.40625 31.476562 L 142.492188 31.945312 L 141.78125 32.308594 L 141.019531 32.683594 L 140.867188 32.75 L 132.03125 32.75 L 131.980469 32.722656 L 132.488281 32.453125 L 132.996094 32.199219 L 133.402344 32 L 134.316406 31.515625 L 134.824219 31.257812 L 135.332031 30.992188 L 135.839844 30.734375 L 136.347656 30.46875 L 136.855469 30.210938 L 137.464844 29.902344 L 138.277344 29.472656 L 138.886719 29.164062 L 139.292969 28.949219 L 139.902344 28.640625 L 140.410156 28.386719 L 140.96875 28.089844 L 141.476562 27.835938 L 142.136719 27.488281 L 142.644531 27.230469 L 143.101562 27.003906 L 143.914062 26.574219 L 144.523438 26.265625 L 145.386719 25.820312 L 146.148438 25.433594 L 146.605469 25.203125 L 147.773438 24.585938 L 148.6875 24.128906 L 149.5 23.699219 L 150.109375 23.390625 L 150.515625 23.175781 L 151.125 22.867188 L 151.378906 22.746094 Z M 151.429688 22.734375 "/>
<path style=" stroke:none;fill-rule:nonzero;fill:rgb(100%,100%,100%);fill-opacity:1;" d="M 61.140625 22.734375 L 61.34375 22.800781 L 62.714844 23.523438 L 63.121094 23.726562 L 64.441406 24.425781 L 65.050781 24.734375 L 65.457031 24.949219 L 66.167969 25.3125 L 67.132812 25.820312 L 67.640625 26.078125 L 68.554688 26.558594 L 68.960938 26.761719 L 70.382812 27.511719 L 70.890625 27.769531 L 71.703125 28.199219 L 72.210938 28.453125 L 73.582031 29.179688 L 74.191406 29.488281 L 74.597656 29.703125 L 75.308594 30.066406 L 76.222656 30.546875 L 76.730469 30.804688 L 77.542969 31.234375 L 78.050781 31.488281 L 79.21875 32.105469 L 79.828125 32.414062 L 80.386719 32.710938 L 80.386719 32.75 L 72.160156 32.75 L 72.058594 32.738281 L 70.941406 32.144531 L 70.535156 31.945312 L 69.621094 31.460938 L 69.113281 31.207031 L 68.199219 30.722656 L 67.691406 30.46875 L 67.082031 30.144531 L 66.574219 29.890625 L 65.863281 29.515625 L 65.457031 29.3125 L 63.882812 28.480469 L 63.273438 28.171875 L 62.867188 27.957031 L 62.257812 27.648438 L 61.851562 27.433594 L 61.140625 27.070312 L 60.480469 27.433594 L 60.074219 27.648438 L 59.515625 27.957031 L 58.144531 28.679688 L 57.585938 28.992188 L 57.027344 29.285156 L 56.46875 29.59375 L 55.65625 30.023438 L 55.097656 30.332031 L 54.640625 30.589844 L 54.234375 30.789062 L 53.675781 31.097656 L 52.355469 31.808594 L 51.796875 32.117188 L 50.628906 32.738281 L 50.578125 32.75 L 41.742188 32.75 L 41.792969 32.667969 L 42.554688 32.28125 L 43.011719 32.050781 L 43.824219 31.621094 L 44.433594 31.3125 L 44.941406 31.058594 L 45.5 30.761719 L 46.007812 30.507812 L 46.566406 30.226562 L 47.53125 29.714844 L 48.039062 29.460938 L 48.648438 29.152344 L 49.460938 28.722656 L 50.121094 28.398438 L 51.085938 27.890625 L 51.59375 27.632812 L 52.101562 27.367188 L 52.609375 27.109375 L 53.167969 26.816406 L 53.675781 26.558594 L 54.234375 26.277344 L 55.046875 25.847656 L 55.65625 25.539062 L 56.164062 25.285156 L 56.722656 24.988281 L 57.738281 24.480469 L 58.753906 23.941406 L 59.261719 23.6875 L 59.820312 23.40625 L 60.632812 22.976562 Z M 61.140625 22.734375 "/>
<path style=" stroke:none;fill-rule:nonzero;fill:rgb(100%,100%,100%);fill-opacity:1;" d="M 74.140625 22.949219 L 100.039062 22.949219 L 100.039062 25.175781 L 91 25.175781 L 91 32.738281 L 90.949219 32.75 L 83.230469 32.75 L 83.179688 32.738281 L 83.179688 25.175781 L 74.140625 25.175781 L 74.089844 25.164062 L 74.089844 22.960938 Z M 74.140625 22.949219 "/>
<path style=" stroke:none;fill-rule:nonzero;fill:rgb(100%,100%,100%);fill-opacity:1;" d="M 189.414062 24.0625 L 190.886719 24.0625 L 192.207031 24.101562 L 193.121094 24.144531 L 194.136719 24.210938 L 195.507812 24.332031 L 196.625 24.464844 L 197.589844 24.613281 L 198.351562 24.746094 L 199.011719 24.882812 L 199.570312 25.003906 L 199.824219 25.070312 L 200.230469 25.164062 L 200.585938 25.269531 L 200.941406 25.363281 L 201.144531 25.433594 L 201.144531 25.460938 L 201.246094 25.460938 L 201.652344 25.605469 L 202.109375 25.78125 L 202.617188 26.007812 L 203.023438 26.222656 L 203.378906 26.4375 L 203.683594 26.667969 L 203.988281 26.949219 L 204.191406 27.21875 L 204.34375 27.554688 L 204.394531 27.835938 L 204.394531 28.238281 L 204.140625 28.695312 L 203.886719 28.964844 L 203.785156 29.097656 L 203.277344 29.5 L 202.769531 29.824219 L 202.363281 30.039062 L 201.855469 30.292969 L 201.398438 30.480469 L 200.738281 30.734375 L 199.925781 31.003906 L 199.46875 31.140625 L 198.910156 31.300781 L 198.148438 31.5 L 197.742188 31.59375 L 197.082031 31.742188 L 196.472656 31.863281 L 195.457031 32.050781 L 194.339844 32.226562 L 193.375 32.359375 L 192.105469 32.507812 L 190.886719 32.628906 L 189.261719 32.75 L 188.042969 32.816406 L 186.367188 32.871094 L 185.757812 32.882812 L 183.574219 32.882812 L 181.695312 32.832031 L 180.070312 32.75 L 178.800781 32.65625 L 177.429688 32.535156 L 176.160156 32.386719 L 175.144531 32.253906 L 174.28125 32.117188 L 173.570312 32 L 172.707031 31.835938 L 171.589844 31.59375 L 171.082031 31.476562 L 169.761719 31.125 L 169.304688 30.976562 L 168.644531 30.761719 L 167.730469 30.398438 L 167.324219 30.226562 L 166.96875 30.039062 L 166.5625 29.835938 L 166.003906 29.472656 L 165.496094 29.070312 L 165.242188 28.816406 L 164.988281 28.46875 L 164.785156 28.023438 L 164.785156 27.472656 L 164.988281 27.488281 L 165.039062 27.808594 L 165.292969 28.277344 L 165.597656 28.601562 L 166.054688 28.964844 L 166.613281 29.300781 L 167.273438 29.609375 L 167.628906 29.757812 L 168.136719 29.945312 L 168.289062 29.996094 L 168.289062 30.023438 L 168.390625 30.023438 L 168.746094 30.144531 L 169.203125 30.28125 L 170.167969 30.535156 L 170.726562 30.65625 L 171.488281 30.816406 L 172.25 30.949219 L 173.113281 31.085938 L 174.585938 31.273438 L 175.855469 31.394531 L 177.125 31.488281 L 178.140625 31.542969 L 179.613281 31.582031 L 181.695312 31.582031 L 183.167969 31.542969 L 184.539062 31.460938 L 185.605469 31.378906 L 186.671875 31.273438 L 188.144531 31.085938 L 188.855469 30.976562 L 189.617188 30.84375 L 190.226562 30.722656 L 191.039062 30.546875 L 191.445312 30.441406 L 191.851562 30.347656 L 192.207031 30.238281 L 192.714844 30.089844 L 193.375 29.863281 L 193.882812 29.660156 L 194.492188 29.378906 L 195.101562 29.015625 L 195.457031 28.761719 L 195.761719 28.46875 L 196.015625 28.089844 L 196.015625 27.539062 L 195.863281 27.257812 L 195.558594 26.949219 L 195.152344 26.679688 L 194.746094 26.464844 L 194.238281 26.25 L 193.578125 26.035156 L 192.816406 25.835938 L 192.308594 25.714844 L 191.445312 25.554688 L 190.632812 25.433594 L 190.226562 25.378906 L 189.210938 25.269531 L 188.246094 25.203125 L 186.824219 25.148438 L 185.402344 25.148438 L 183.980469 25.203125 L 182.914062 25.285156 L 182.152344 25.363281 L 181.1875 25.484375 L 180.273438 25.648438 L 179.5625 25.792969 L 179.207031 25.875 L 178.851562 25.984375 L 178.34375 26.128906 L 177.9375 26.277344 L 177.429688 26.492188 L 176.921875 26.773438 L 176.617188 27.003906 L 176.515625 27.082031 L 176.261719 27.070312 L 176.3125 26.960938 L 176.617188 26.679688 L 176.921875 26.4375 L 177.480469 26.117188 L 177.835938 25.941406 L 178.34375 25.726562 L 178.902344 25.527344 L 179.410156 25.351562 L 180.679688 25.015625 L 181.238281 24.894531 L 181.746094 24.789062 L 182.660156 24.625 L 183.320312 24.519531 L 184.183594 24.410156 L 184.640625 24.359375 L 185.65625 24.25 L 186.519531 24.183594 L 187.636719 24.117188 L 188.804688 24.074219 Z M 189.414062 24.0625 "/>
<path style=" stroke:none;fill-rule:nonzero;fill:rgb(100%,100%,100%);fill-opacity:1;" d="M 183.726562 22.25 L 185.960938 22.25 L 187.839844 22.304688 L 189.464844 22.382812 L 190.734375 22.476562 L 191.953125 22.585938 L 193.273438 22.734375 L 194.289062 22.867188 L 195.253906 23.015625 L 195.964844 23.136719 L 196.828125 23.296875 L 197.640625 23.472656 L 198.351562 23.632812 L 199.570312 23.953125 L 199.570312 23.980469 L 199.773438 24.007812 L 200.230469 24.15625 L 200.789062 24.34375 L 201.347656 24.546875 L 201.855469 24.761719 L 202.363281 24.988281 L 202.871094 25.242188 L 203.429688 25.59375 L 203.683594 25.769531 L 204.140625 26.15625 L 204.445312 26.519531 L 204.648438 26.84375 L 204.75 27.191406 L 204.75 27.78125 L 204.546875 27.78125 L 204.445312 27.296875 L 204.34375 27.070312 L 204.039062 26.679688 L 203.632812 26.320312 L 203.023438 25.929688 L 202.515625 25.671875 L 201.90625 25.40625 L 201.246094 25.164062 L 200.636719 24.976562 L 200.078125 24.8125 L 199.367188 24.625 L 198.25 24.382812 L 197.4375 24.238281 L 196.675781 24.117188 L 195.863281 23.996094 L 194.695312 23.859375 L 193.832031 23.78125 L 192.816406 23.699219 L 191.953125 23.644531 L 190.734375 23.59375 L 190.125 23.578125 L 187.585938 23.578125 L 186.671875 23.605469 L 185.300781 23.671875 L 183.726562 23.792969 L 183.015625 23.859375 L 182.253906 23.953125 L 181.441406 24.0625 L 180.476562 24.210938 L 179.664062 24.359375 L 179.003906 24.492188 L 178.242188 24.667969 L 177.175781 24.949219 L 176.71875 25.097656 L 176.210938 25.269531 L 175.5 25.554688 L 175.144531 25.714844 L 174.738281 25.929688 L 174.382812 26.144531 L 173.925781 26.453125 L 173.621094 26.789062 L 173.46875 27.058594 L 173.367188 27.324219 L 173.46875 27.324219 L 173.570312 27.675781 L 173.722656 27.917969 L 173.976562 28.171875 L 174.433594 28.480469 L 175.09375 28.789062 L 175.550781 28.949219 L 176.007812 29.097656 L 176.566406 29.257812 L 177.226562 29.40625 L 177.988281 29.554688 L 178.648438 29.660156 L 179.410156 29.757812 L 180.324219 29.851562 L 181.492188 29.929688 L 182.710938 29.96875 L 184.183594 29.96875 L 185.402344 29.929688 L 186.671875 29.835938 L 187.433594 29.757812 L 188.246094 29.648438 L 188.957031 29.539062 L 189.820312 29.367188 L 190.582031 29.179688 L 191.140625 29.015625 L 191.648438 28.828125 L 192.054688 28.65625 L 192.460938 28.453125 L 192.765625 28.25 L 192.96875 28.105469 L 193.222656 28.117188 L 193.070312 28.304688 L 192.664062 28.628906 L 192.105469 28.964844 L 191.546875 29.230469 L 191.039062 29.433594 L 190.429688 29.648438 L 189.515625 29.917969 L 189.007812 30.050781 L 188.601562 30.144531 L 187.890625 30.292969 L 187.230469 30.414062 L 186.671875 30.507812 L 185.554688 30.667969 L 184.386719 30.804688 L 183.269531 30.898438 L 182.203125 30.964844 L 181.441406 31.003906 L 180.171875 31.03125 L 178.648438 31.03125 L 177.378906 31.003906 L 176.058594 30.9375 L 174.839844 30.84375 L 173.773438 30.734375 L 172.503906 30.574219 L 171.691406 30.441406 L 171.03125 30.320312 L 170.371094 30.1875 L 169.609375 30.011719 L 168.898438 29.824219 L 168.441406 29.675781 L 167.882812 29.488281 L 167.527344 29.351562 L 166.96875 29.109375 L 166.308594 28.761719 L 165.800781 28.386719 L 165.496094 28.078125 L 165.292969 27.78125 L 165.191406 27.511719 L 165.140625 27.5 L 165.140625 27.097656 L 165.292969 26.695312 L 165.597656 26.265625 L 165.800781 25.996094 L 166.207031 25.648438 L 166.460938 25.5 L 167.019531 25.175781 L 167.628906 24.867188 L 168.238281 24.613281 L 168.847656 24.382812 L 169.40625 24.195312 L 169.863281 24.050781 L 170.675781 23.820312 L 171.386719 23.632812 L 171.792969 23.539062 L 172.453125 23.390625 L 173.417969 23.203125 L 174.179688 23.070312 L 174.941406 22.949219 L 176.058594 22.785156 L 177.277344 22.640625 L 178.089844 22.558594 L 179.308594 22.453125 L 180.527344 22.371094 L 181.847656 22.304688 Z M 183.726562 22.25 "/>
<path style=" stroke:none;fill-rule:nonzero;fill:rgb(100%,100%,100%);fill-opacity:1;" d="M 61.140625 30.105469 L 61.242188 30.105469 L 62.003906 30.546875 L 62.359375 30.761719 L 63.171875 31.246094 L 63.425781 31.394531 L 64.085938 31.785156 L 64.796875 32.199219 L 65.609375 32.683594 L 65.660156 32.738281 L 65.609375 32.75 L 56.773438 32.75 L 56.722656 32.710938 L 57.585938 32.199219 L 57.941406 31.984375 L 58.296875 31.785156 L 58.957031 31.394531 L 59.210938 31.246094 L 59.667969 30.964844 L 60.378906 30.546875 L 60.734375 30.332031 L 61.089844 30.132812 Z M 61.140625 30.105469 "/>
<path style=" stroke:none;fill-rule:nonzero;fill:rgb(100%,100%,100%);fill-opacity:1;" d="M 151.429688 30.386719 L 151.632812 30.441406 L 152.089844 30.695312 L 152.496094 30.910156 L 152.953125 31.140625 L 155.898438 32.695312 L 155.898438 32.75 L 147.011719 32.75 L 147.0625 32.683594 L 151.378906 30.398438 Z M 151.429688 30.386719 "/>
</g>
</svg>
