<?xml version="1.0" encoding="UTF-8"?>
<svg version="1.1" viewBox="0 0 4096 944" width="1280" height="1280" xmlns="http://www.w3.org/2000/svg">
<path transform="translate(2018,130)" d="m0 0h368l22 2 23 4 21 6 26 11 16 9 12 8 14 11 10 9 6 5v2h2l7 8 12 15 11 17 12 23 7 18 6 23 3 15 1 10v43l-3 20-4 17-6 18-9 21-11 19-6 8 1 3 11 9 15 15 11 14 10 14 10 18 9 19 7 21 5 23 2 18v35l-3 24-5 20-7 20-12 25-9 14-8 11-8 10-9 10-6 6h-2v2l-11 9-13 10-18 11-16 8-14 6-23 7-20 4-9 1h-429v-728zm153 133v442h246l14-3 16-7 13-10 9-10 8-13 5-13 2-12v-17l-3-15-5-12-9-13-5-6-11-9-10-6-14-5-13-2h-152v-136h111l14-2 15-6 11-7 12-11 7-10 7-14 3-10 1-9v-15l-2-13-6-15-7-11-8-9-13-10-15-7-12-3-14-1z" fill="#fff"/>
<path transform="translate(92,119)" d="m0 0 5 2 11 9 14 11 16 13 13 10 15 12 14 11 30 24 14 11 10 8 42 33 16 13 17 13 17 14 13 10 15 12 14 11 16 13 13 10 15 12 14 11 20 16 8 6 4-1 13-12 11-9 4-4h2v-2l11-9 15-14 11-9 13-12 11-9 14-13 11-9 13-12 11-9 7-7 11-9 4-4h2v-2l11-9 14-13 11-9 3-3h2l1-3 11-9 13-12 11-9 14-13 11-9 14-13 11-9 13-12 8-7 7-6h2l1 121 1 184 1 275v159h-157v-402l-11 9-11 10-8 7-13 11-15 13-8 7h-2v2l-11 9-11 10-11 9-11 10-11 9-11 10-11 9-11 10-6 5h-2v2l-7 5-8-6-16-13-14-11-17-14-14-11-16-13-2-1v-2l-4-2-9-7-11-9-14-11-13-10v-2l-4-2-9-7-11-9-14-11-11-9-8-6v416h-167z" fill="#fff"/>
<path transform="translate(2982,117)" d="m0 0 3 4 18 36 14 27 8 16 12 23 20 40 10 19 15 30 10 19 27 54 12 23 23 46 12 23 8 16 9 17 16 32 9 17 26 52 10 19 16 32 9 17 8 16 11 21 8 17 10 19 19 38 9 17 8 16 12 23 7 14v3h-163l-8-14-15-28-13-24-15-28-8-14-7-14-8-14-7-14-8-14-7-14-13-23-8-16-7-12-7-14-12-22-17-32-13-24-12-22-17-32-12-22-1-2-5 8-8 16-10 19-8 16-12 23-10 19-14 27-10 19-12 22-8 16-8 15-8 16-14 27-10 19-12 23-10 19-18 35-14 27-15 28-3 5h-174l-1-2 10-20 10-19 8-15 18-36 10-19 10-20 10-19 10-20 10-19 12-23 16-32 12-23 8-16 12-23 10-19 11-22 10-19 13-26 10-19 9-17 16-32 12-23 17-33 15-29 9-17 23-46 10-19 8-15 16-32 12-23 8-16 12-23 5-9z" fill="#fff"/>
<path transform="translate(1204,117)" d="m0 0 4 5 27 54 8 15 26 52 12 23 8 16 14 27 19 38 10 19 18 36 8 15 28 56 10 19 16 32 10 19 27 54 12 23 8 16 14 27 18 36 10 19 16 32 10 19 23 46 12 23 11 22v3h-162l-2-1-22-44-8-15-18-36-10-19-18-36-10-19-12-24-10-19-14-28-8-15-31-62-12-23-8-16-12-23-8-16-14-27-13 27-8 16-11 23-27 54-11 23-11 22-11 23-16 32-11 23-9 19-8 15-11 23-26 53-11 23-23 46-1 1h-174l1-6 15-29 9-17 16-32 12-23 10-19 11-22 10-19 11-21 19-38 10-19 12-23 16-32 13-24 19-38 10-19 10-20 10-19 11-22 10-19 11-21 16-32 12-23 10-19 11-22 20-38 20-40 10-19 11-21 16-32z" fill="#fff"/>
<path transform="translate(1460,133)" d="m0 0h510v166h-178v563l-1 1h-152l-1-1v-563h-178l-1-1v-164z" fill="#fff"/>
<path transform="translate(3730,216)" d="m0 0h29l26 3 18 3 20 5 27 9 22 10 19 11 15 10 13 10 11 9 5 5 8 7 7 8 7 7 4 5v2h2l8 11 9 13 10 17 8 16 7 16 6 17 6 21 4 20 3 25 1 21v30l-5 34-5 20-2 10-10 30-10 24-8 16-10 19-9 14-13 19-16 20-9 10-11 12-15 15-8 7-13 11-12 9-20 14-22 13-19 10-25 11-24 9-32 9-24 5-33 4-12 1h-43l-37-4-32-6-25-7-27-9-25-11-20-10-17-10-14-9-17-12-22-18-10-9-26-26-9-11-13-16-18-27-8-13-7-14-8-15-11-27-10-30-5-19-5-26-4-33v-41l4 1 1 24 5 35 6 24 9 27 11 25 13 23 7 11 10 14 3 4v2h2l7 9 9 10 19 19 11 9 15 12 15 10 17 10 29 14 25 9 25 7 20 4 29 3h41l29-3 27-6 21-6 21-8 29-14 14-8 15-10 12-9 16-13 8-8 8-7 7-8 10-11 13-17 10-15 12-21 12-27 7-19 6-22 5-28v-41l-3-21-6-23-8-20-8-16-10-16-13-16-15-15-10-9-17-12-16-9-8-4-20-8-19-5-28-4h-28l-28 4-21 6-15 6-19 9-18 12-14 11-7 6-7 8-10 11-8 11-10 16-10 21-6 17-2 6-5-1 1-8 6-21 6-18 11-24 7-13 10-16 11-15 10-13 25-25 11-9 10-8 18-12 13-8 17-8 9-4 20-8 17-5 22-5 23-3z" fill="#fff"/>
<path transform="translate(3618,81)" d="m0 0h44l37 4 32 6 25 7 24 8 26 11 20 10 19 11 14 9 17 12 16 13 14 12 24 24v2l4 2 9 11 11 14 11 15 10 16 10 17 10 19 11 26 5 13 9 29 6 27 4 24 2 26v44h-4l-2-36-2-17-6-29-8-27-12-29-10-19-12-20-13-18-12-14-11-12-14-14-22-18-16-11-15-9-16-9-23-10-17-6-20-6-17-4-24-4-12-1h-50l-18 2-27 5-31 9-14 5-15 7-16 8-19 11-16 11-13 10-15 13-21 21-9 11-10 13-14 21-7 12-8 16-7 16-9 23-6 25-3 20-2 20h2l2 26 3 18 5 19 9 23 13 23 9 12 9 11 11 12 13 11 15 11 13 8 15 7 18 7 23 6 24 3h29l24-3 25-7 15-6 16-8 14-8 17-13 15-14 11-12 10-14 8-13 8-15 6-15 4-11 5 1-3 14-8 24-11 25-11 20-10 15-12 16-18 20-10 10-8 7-14 11-13 9-11 7-22 12-23 10-22 7-21 5-15 3-25 2h-30l-25-2-26-5-24-7-21-8-25-12-16-10-13-9-13-10-15-13-14-14-9-11-11-14-7-10-11-18-13-26-10-28-6-23-4-22-2-20-1-1v-30l3-30 6-32 4-20 8-26 5-11 11-24 12-23 12-19 12-17 11-14 9-11 16-17 14-14 8-7 13-11 19-14 15-10 15-9 22-12 24-11 16-6 24-8 24-6 26-5z" fill="#fff"/>
<path transform="translate(1204,666)" d="m0 0h2l15 33 7 16 16 36 5 11 13 29 14 31 16 36 1 4-1 1h-174l-1-3 17-38 7-16 7-15 13-29 5-11 9-21 14-31 7-16 7-15z" fill="#fff"/>
<path transform="translate(2982,687)" d="m0 0 4 4 9 19 8 16 9 17 58 116v4h-175l1-5 85-170z" fill="#fff"/>
</svg>
